<?xml version="1.0" standalone="no"?>
<!DOCTYPE svg PUBLIC "-//W3C//DTD SVG 20010904//EN"
 "http://www.w3.org/TR/2001/REC-SVG-20010904/DTD/svg10.dtd">
<svg version="1.0" xmlns="http://www.w3.org/2000/svg"
 width="500.000000pt" height="500.000000pt" viewBox="0 0 500.000000 500.000000"
 preserveAspectRatio="xMidYMid meet">

<g transform="translate(0.000000,500.000000) scale(0.100000,-0.100000)"
fill="#000000" stroke="none">
<path d="M0 2500 l0 -2500 2500 0 2500 0 0 2500 0 2500 -2500 0 -2500 0 0
-2500z m2720 2300 l0 -70 -1215 0 -1215 0 -2 -1217 -3 -1218 -67 -3 -68 -3 0
1291 0 1290 1285 0 1285 0 0 -70z m-1510 -1019 c109 -34 167 -90 198 -191 15
-47 17 -102 17 -390 0 -401 -3 -420 -89 -506 -45 -44 -65 -56 -127 -75 -67
-21 -95 -23 -294 -23 l-220 -1 -3 595 c-1 327 0 601 3 609 5 12 43 13 228 8
185 -4 233 -9 287 -26z m1221 -272 c25 -163 48 -302 51 -309 2 -7 23 122 47
286 24 165 46 305 49 312 3 10 65 12 281 10 l276 -3 26 -160 c14 -88 36 -227
49 -308 12 -81 24 -146 26 -144 2 2 22 131 44 288 23 156 45 294 50 307 l10
23 270 -1 c163 -1 272 -5 276 -11 3 -5 27 -146 53 -312 33 -207 50 -293 54
-272 4 17 20 125 37 240 17 116 35 243 42 283 l11 73 138 -2 c77 0 141 -4 143
-7 3 -6 -88 -515 -205 -1149 l-11 -63 -158 0 -158 0 -6 33 c-3 17 -51 284
-106 592 -55 308 -102 564 -103 569 -2 5 -49 -245 -106 -555 -56 -310 -105
-580 -109 -599 l-8 -35 -156 -3 -156 -2 -10 47 c-6 27 -54 294 -108 595 -54
301 -100 546 -102 544 -2 -2 -52 -269 -111 -593 l-108 -588 -158 0 -159 0 -98
545 c-128 712 -116 655 -117 538 l-1 -98 -135 0 -135 0 0 -120 0 -120 100 0
100 0 0 -115 0 -115 -100 0 -100 0 0 -145 0 -145 135 0 135 0 0 -115 0 -115
-290 0 -290 0 0 603 c0 332 3 607 7 610 3 4 196 6 427 5 l420 -3 47 -296z
m2379 -1959 l0 -1380 -1380 0 -1380 0 0 70 c0 49 4 70 13 70 6 0 586 0 1288 0
703 0 1284 3 1293 6 15 6 16 124 16 1310 l0 1304 75 0 75 0 0 -1380z m-3765
835 c149 -39 215 -147 215 -352 l0 -93 -129 0 -128 0 -5 105 c-8 143 -31 176
-114 161 -64 -13 -65 -19 -62 -446 3 -373 3 -380 24 -401 25 -25 98 -29 120
-7 18 18 34 106 34 189 l0 69 130 0 130 0 0 -85 c0 -201 -62 -316 -195 -362
-76 -27 -251 -24 -327 6 -77 30 -139 98 -170 189 -22 65 -23 77 -23 412 0 380
3 406 64 502 36 57 87 92 161 112 73 19 201 20 275 1z m850 1 c105 -27 166
-82 206 -182 24 -58 24 -63 24 -424 0 -407 -4 -438 -68 -522 -64 -84 -195
-127 -345 -114 -161 15 -248 79 -293 218 -23 71 -24 82 -24 403 0 365 5 407
58 496 58 96 149 137 307 138 47 1 108 -5 135 -13z m2430 -13 c81 -43 125
-114 147 -241 6 -39 10 -73 7 -76 -2 -2 -53 -10 -112 -17 -122 -15 -127 -13
-127 52 0 82 -34 120 -93 105 -54 -13 -67 -116 -24 -189 14 -24 73 -85 132
-137 198 -174 245 -255 245 -420 0 -66 -4 -86 -31 -138 -33 -66 -89 -121 -153
-147 -86 -36 -232 -28 -323 17 -54 27 -88 65 -119 134 -23 50 -53 199 -42 209
7 7 172 35 205 35 18 0 23 -7 28 -47 11 -87 16 -103 42 -133 28 -34 81 -41
107 -15 35 36 28 131 -16 203 -11 18 -75 82 -143 142 -140 125 -188 188 -211
280 -45 177 34 339 190 390 83 27 232 24 291 -7z m-1631 7 c207 -22 289 -93
316 -277 13 -91 13 -581 -1 -662 -22 -136 -75 -208 -185 -252 -54 -21 -77 -23
-291 -27 l-233 -4 0 616 0 616 153 0 c83 0 192 -5 241 -10z m1036 -85 l0 -95
-140 0 -140 0 0 -150 0 -149 108 -3 107 -3 3 -92 3 -93 -111 0 -110 0 0 -185
0 -185 140 0 140 0 0 -90 0 -90 -275 0 -275 0 0 608 c0 335 3 612 7 615 3 4
127 7 275 7 l268 0 0 -95z"/>
<path d="M750 3201 l0 -551 189 0 c227 0 296 15 360 79 67 67 73 110 69 501
-3 328 -3 336 -27 383 -12 26 -38 59 -57 73 -61 47 -113 56 -331 61 l-203 5 0
-551z m362 403 c51 -27 53 -36 56 -374 3 -351 -3 -398 -51 -434 -20 -15 -47
-21 -97 -24 l-70 -4 0 432 0 432 68 -7 c37 -4 79 -13 94 -21z"/>
<path d="M1000 3200 l0 -370 39 0 c71 0 71 0 71 372 0 315 -1 329 -20 348 -12
12 -33 20 -55 20 l-35 0 0 -370z"/>
<path d="M1590 3200 l0 -550 230 0 230 0 0 55 0 55 -130 0 -130 0 2 203 3 202
98 3 97 3 0 59 0 60 -100 0 -100 0 0 170 0 170 130 0 130 0 0 60 0 60 -230 0
-230 0 0 -550z"/>
<path d="M2180 3734 c0 -15 34 -207 146 -823 24 -134 44 -248 44 -253 0 -4 52
-8 115 -8 63 0 115 3 115 6 0 8 189 1044 195 1072 5 22 4 22 -83 22 l-88 0
-53 -362 c-29 -200 -55 -371 -58 -381 -3 -13 -13 -17 -31 -15 l-26 3 -37 235
c-21 129 -47 299 -59 378 l-22 142 -79 0 c-66 0 -79 -3 -79 -16z"/>
<path d="M2932 3723 c2 -16 47 -263 99 -550 l94 -523 112 0 112 0 10 53 c13
61 191 1036 191 1043 0 3 -39 3 -87 2 l-87 -3 -56 -375 -55 -375 -27 -3 c-22
-3 -27 2 -32 25 -5 25 -116 722 -116 730 0 1 -37 3 -81 3 l-81 0 4 -27z"/>
<path d="M3685 3718 c3 -18 48 -265 99 -548 l93 -515 113 0 114 0 98 535 c54
294 98 541 98 548 0 9 -23 12 -84 12 -84 0 -84 0 -90 -27 -7 -33 -106 -710
-106 -723 0 -6 -13 -10 -30 -10 -16 0 -30 3 -30 6 0 11 -110 708 -115 732 -5
21 -11 22 -86 22 l-80 0 6 -32z"/>
<path d="M1713 2195 c-38 -27 -43 -74 -43 -425 0 -333 5 -395 35 -420 24 -20
95 -14 119 10 20 20 21 31 24 393 2 204 0 382 -3 395 -14 56 -84 81 -132 47z"/>
<path d="M2570 1773 l0 -423 45 0 c65 0 102 22 114 68 12 40 13 656 2 706 -8
40 -46 64 -108 69 l-53 4 0 -424z"/>
</g>
</svg>
